<?xml version="1.0" encoding="UTF-8" standalone="no"?>
<svg
   width="100"
   height="83.333328"
   viewBox="0 0 3.5 2.9166665"
   version="1.1"
   id="svg9"
   sodipodi:docname="TheNewsApp_Splash.svg"
   inkscape:version="1.2.2 (b0a8486, 2022-12-01)"
   xmlns:inkscape="http://www.inkscape.org/namespaces/inkscape"
   xmlns:sodipodi="http://sodipodi.sourceforge.net/DTD/sodipodi-0.dtd"
   xmlns="http://www.w3.org/2000/svg"
   xmlns:svg="http://www.w3.org/2000/svg"
   xmlns:rdf="http://www.w3.org/1999/02/22-rdf-syntax-ns#"
   xmlns:cc="http://creativecommons.org/ns#"
   xmlns:dc="http://purl.org/dc/elements/1.1/">
  <defs
     id="defs13" />
  <sodipodi:namedview
     id="namedview11"
     pagecolor="#ffffff"
     bordercolor="#000000"
     borderopacity="0.25"
     inkscape:showpageshadow="2"
     inkscape:pageopacity="0.0"
     inkscape:pagecheckerboard="0"
     inkscape:deskcolor="#d1d1d1"
     showgrid="false"
     inkscape:zoom="1.9898798"
     inkscape:cx="53.520821"
     inkscape:cy="39.952162"
     inkscape:window-width="1360"
     inkscape:window-height="617"
     inkscape:window-x="1334"
     inkscape:window-y="53"
     inkscape:window-maximized="0"
     inkscape:current-layer="svg9" />
  <!-- Uploaded to: SVG Repo, www.svgrepo.com, Generator: SVG Repo Mixer Tools -->
  <title
     id="title2">ic_fluent_news_28_regular</title>
  <desc
     id="desc4">Created with Sketch.</desc>
  <g
     id="ðŸ”-Product-Icons"
     stroke="none"
     stroke-width="1"
     fill="none"
     fill-rule="evenodd"
     style="fill:#003366;fill-opacity:1"
     transform="matrix(0.14583333,0,0,0.14583333,-0.29166666,-0.58333332)">
    <g
       id="ic_fluent_news_28_regular"
       fill="#212121"
       fill-rule="nonzero"
       style="fill:#003366;fill-opacity:1">
      <path
         d="M 22.75,24 H 5.25 C 3.5169685,24 2.1007541,22.643545 2.0051448,20.934424 L 2,20.75 V 6.25 C 2,5.059136 2.9251616,4.0843551 4.0959512,4.0051908 L 4.25,4 h 15.5 c 1.190864,0 2.165645,0.9251616 2.244809,2.0959512 L 22,6.25 V 7 h 1.75 c 1.190864,0 2.165645,0.9251616 2.244809,2.0959512 L 26,9.25 v 11.5 c 0,1.733031 -1.356455,3.149246 -3.065576,3.244855 L 22.75,24 H 5.25 Z M 5.25,22.5 h 17.5 c 0.918173,0 1.671192,-0.70711 1.744199,-1.606473 L 24.5,20.75 V 9.25 C 24.5,8.8703042 24.217846,8.556509 23.851771,8.5068466 L 23.75,8.5 H 22 v 10.75 c 0,0.379696 -0.282154,0.693491 -0.648229,0.743153 L 21.25,20 c -0.379696,0 -0.693491,-0.282154 -0.743153,-0.648229 L 20.5,19.25 v -13 C 20.5,5.8703042 20.217846,5.556509 19.851771,5.5068466 L 19.75,5.5 H 4.25 C 3.8703042,5.5 3.556509,5.7821539 3.5068466,6.1482294 L 3.5,6.25 v 14.5 c 0,0.918173 0.7071103,1.671192 1.6064728,1.744199 L 5.25,22.5 h 17.5 z m 4.996527,-9.496527 c 0.690356,0 1.25,0.559644 1.25,1.25 V 17.75 c 0,0.690356 -0.559644,1.25 -1.25,1.25 H 6.75 C 6.0596441,19 5.5,18.440356 5.5,17.75 v -3.496527 c 0,-0.690356 0.5596441,-1.25 1.25,-1.25 z M 14.25,17.5 h 3.496181 c 0.414213,0 0.75,0.335786 0.75,0.75 0,0.379696 -0.282154,0.693491 -0.64823,0.743153 L 17.746181,19 H 14.25 c -0.414214,0 -0.75,-0.335786 -0.75,-0.75 0,-0.379696 0.282154,-0.693491 0.648229,-0.743153 L 14.25,17.5 h 3.496181 z M 9.9965274,14.503473 H 7 V 17.5 h 2.9965274 z m 4.2534726,-1.5 h 3.496181 c 0.414213,0 0.75,0.335786 0.75,0.75 0,0.379695 -0.282154,0.693491 -0.64823,0.743153 l -0.10177,0.0068 H 14.25 c -0.414214,0 -0.75,-0.335787 -0.75,-0.75 0,-0.379696 0.282154,-0.693491 0.648229,-0.743154 L 14.25,13.003473 h 3.496181 z M 6.2463958,8.4966579 H 17.746181 c 0.414213,0 0.75,0.3357865 0.75,0.75 0,0.3796958 -0.282154,0.693491 -0.64823,0.7431534 l -0.10177,0.00685 H 6.2463958 c -0.4142135,0 -0.75,-0.3357864 -0.75,-0.75 0,-0.3796957 0.2821539,-0.6934909 0.6482295,-0.7431533 L 6.2463958,8.496658 H 17.746181 Z"
         id="ðŸŽ¨-Color"
         style="fill:#003366;fill-opacity:1" />
    </g>
  </g>
  <metadata
     id="metadata1222">
    <rdf:RDF>
      <cc:Work
         rdf:about="">
        <dc:title>ic_fluent_news_28_regular</dc:title>
      </cc:Work>
    </rdf:RDF>
  </metadata>
</svg>
